<svg xmlns="http://www.w3.org/2000/svg" viewBox="0 0 141.7 139.5"><title>clock illustration</title><path d="M71.8 21.5V1a1 1 0 0 0-2 0v20.5h2zm-26 6.9l1.7-1L37.3 9.7a1 1 0 0 0-1.7 1zm-35.3 6.3a1 1 0 0 0 .4 1.4l17.7 10.3 1-1.7-17.7-10.3a1 1 0 0 0-1.4.3zm95.9-26.2a1 1 0 0 0-1.4.4L94.2 27.5l1.7 1 10.8-18.6a1 1 0 0 0-.3-1.4zm25.4 27.2a1 1 0 1 0-1-1.7l-18.6 10.8 1 1.7zM22.5 69.8v-1H1a1 1 0 1 0 0 2h21.5v-1zm118.2-1h-21.6v2h21.5a1.001 1.001 0 1 0 .1-2zm-9.9 34.6l-17.7-10.3-1 1.7 17.7 10.3h.5a1 1 0 0 0 .5-1.7zm-120.9.5a1 1 0 0 0 .5 1.9h.5L29.5 95l-1-1.7zm86 7.2l-1.7 1 10.2 17.7a1 1 0 0 0 .9.5h.5a1 1 0 0 0 .4-1.4zm-61 18.6a1 1 0 0 0 .4 1.4h.5a1 1 0 0 0 .9-.5L47.5 112l-1.7-1zm34.9-11.6v20.5a1 1 0 0 0 2 0v-20.5h-2zm34.9-66.2a1.5 1.5 0 1 0-1.5-2.6L74.8 65.7a5.7 5.7 0 0 0-7.9 0L46.6 53.9a1.5 1.5 0 0 0-1.5 2.6l20.3 11.8a5.7 5.7 0 1 0 11 0zM75.3 66.4zm.4.6zm-9.8 0zm.4-.6zm4.5 6.2a2.7 2.7 0 1 1 2.7-2.7 2.7 2.7 0 0 1-2.7 2.5z" fill="#fff"/></svg>