<svg xmlns="http://www.w3.org/2000/svg" viewBox="0 0 369.5 100.9"><title>logotype-tablet</title><path d="M119.9 11.4C127 9 127.6 0 120.5 0c-1.9 0-4.3 1.4-5.9 4.2L105 20.7a13.8 13.8 0 0 1-1.4 2c-2.5-3.4-1.7-8.5 1.7-10.7l-1.3-1.7c-7.5 4.8-5.3 18.5 7.2 18.5 10.6-.1 15.5-12.8 8.7-17.4zM111.1 26a10.2 10.2 0 0 1-5.1-1.2 18.4 18.4 0 0 0 1.8-2.5l6-10.4h1c8.2 1.8 4.9 14.1-3.7 14.1zm3.8-16.2l2.9-4.9c2.6-4.5 5.9-1.8 4.1 1.5s-3.4 3.3-7 3.4z" fill="#fff"/><path d="M259.2 19l-.2.3a16.7 16.7 0 0 1-6.5 5c.6-.9 1-1.9 1.5-2.7l3.9-6.7c3.3-5.6-2.1-7.5-5.7-4.3l.7-1.2h-3.6l-5.5 9.6-.2.3a7.7 7.7 0 0 1-5.4 2.6l3.4-5.8c2.2-3.7.2-7.3-3.2-7.3s-4.9 1.1-6.9 4.7l-1.7 3-1.6 2.5-.2.2c-2.6 3-5.1 5.3-6.6 5.3s-1.2-.5-.4-1.9l5.1-9c1.5-2.7.1-4.7-1.9-4.7s-3.2.9-5 2.7l5.7-9.9h-3.6L211.4 19l-.2.2a22.1 22.1 0 0 1-4.3 3.9c1.1-3.4.9-8.6 3.1-13.1l-2.7-1.4c-1.5 2-4.7 6.7-7.9 10.4l-.2.3c-2.6 3-5.1 5.3-6.6 5.3s-1.2-.5-.4-1.9l3.6-6.2c1.2-2.2.6-3.4-.5-4.8l-2-2.4a1.4 1.4 0 0 1 .2-2.1l-1.8-2c-2 1.8-2.2 3.8-.9 5.5l.2.3c-1.6 2.2-3.7 5.2-6 8l-.2.3c-2.6 3-5.9 5.3-8.3 5.3s-3.5-1.4-1.8-4.2l.3-.6c2.3 1 6.6.5 9.3-4.1l.5-.9c1.9-3.3.1-5.7-2.8-5.7a7.5 7.5 0 0 0-6.7 4.1l-3.6 5.8-.2.2a7.6 7.6 0 0 1-5.4 2.6l3.4-5.8a8.7 8.7 0 0 0 1.3-4.1 3 3 0 0 0-3.2-3.2 4.1 4.1 0 0 0-2.3.8l4.5-7.8h-3.6l-10 17.3-.2.2c-2.6 3-5.1 5.3-6.6 5.3s-1.2-.5-.4-1.9l3.6-6.2c1.2-2.2.6-3.4-.5-4.8l-2-2.4a1.4 1.4 0 0 1 .2-2.1l-1.8-2c-2 1.8-2.2 3.8-.9 5.5l.3.4c-1.6 2.2-3.7 5.2-6 8l-.2.3c-2.6 3-5.1 5.3-6.6 5.3s-1.2-.5-.4-1.9l5.7-10.1h-2a3.7 3.7 0 0 0-4-3.6c-1.9 0-4.6 1.5-6.1 4.1l-5 8.6c-1.5 2.6-.4 5.1 2.4 5.1s3.2-.9 4.9-2.3c.2 1.4 1.3 2.3 3.1 2.3s6.3-3.1 9.3-6.6c1.7-2 3-3.8 5.9-7.6l.5.6a1.7 1.7 0 0 1 .2 2l-3.8 6.5c-1.5 2.6-.4 5.1 2.4 5.1s4.3-1.5 6.5-3.7c0 2.4 1.8 3.8 4.1 3.8a7.9 7.9 0 0 0 6.1-3.3h.8a10.4 10.4 0 0 0 4.7-1.4c-.2 2.6 1.7 4.5 4.8 4.5s8-3.1 11-6.6 3-3.8 5.9-7.6l.5.6a1.7 1.7 0 0 1 .2 2l-3.8 6.5c-1.5 2.6-.4 5.1 2.4 5.1s6.3-3.1 9.3-6.6c2-2.3 3.8-4.8 5.1-6.5-1.4 3.7-.6 10.3-4 10.3a2 2 0 0 1-1.7-1.3l-2.2 1.2a3.9 3.9 0 0 0 3.9 2.9h1.1a12.5 12.5 0 0 0 5.5-2.4l-1.2 2.1h3.6l5.4-9.4c5.5-6.9 7.9-6 6.4-3.4l-4.6 8c-1.5 2.6-.4 5.1 2.4 5.1s4.4-1.6 6.6-3.7c0 4.5 6.3 5.4 10.1.6h.8a9.8 9.8 0 0 0 3.8-.9l-6.5 11.2h3.6l10.6-18.5c4-5.4 6.5-3.4 5.5-1.8l-5.4 9.3a1.4 1.4 0 0 1-2.6 0l-2 1a3.9 3.9 0 0 0 3.9 2.9h.2c5.2-.1 8.6-3.2 11.5-6.6a2.2 2.2 0 0 0-1.3-1.2zm-81-5c2.1-3.5 5.7-2.9 3.6.8l-.5.9c-1.7 2.9-4 2.8-5.3 2.4zm-45.6 5.6c-2.2 3.4-4.3 5-5.7 5s-1.2-.5-.4-1.9l5-8.7c1.9-3.3 5.7-2.5 4 .8zm26.8 4.9a1.3 1.3 0 0 1-1.4-1.4 4 4 0 0 1 .6-1.8l1.3-2.2a5.2 5.2 0 0 0 2.3 3.7 3.3 3.3 0 0 1-2.8 1.6zm3.7-3.5a3.8 3.8 0 0 1-1.5-3.2c0-2.5 2.5-6.7 4.5-6.7a1.4 1.4 0 0 1 1.3 1.5 4.3 4.3 0 0 1-.7 2.1zm73.1-1.8h-.2a2.1 2.1 0 0 0-2.1 2.1 2.3 2.3 0 0 0 .3 1.2c-1.7 2.9-5.7 2.3-3.6-1.4l2.7-4.7 1.7-2.9c2.5-4.2 5.9-2.6 3.8 1.1zM.034 73.23l5.727-5.728 5.714 5.714-5.728 5.727zm351.901-.102l5.728-5.727 5.713 5.713-5.727 5.728z" fill="#fff"/><path fill="#636466" d="M46.8 73.5h2.1v-8.3h3.3v-2.1h-5.4v10.4zM61.7 75V62.3a4.6 4.6 0 0 0-2.6-4.1 4.5 4.5 0 0 1 .5 2v12.7a4.5 4.5 0 0 1-1.7 3.5 5.2 5.2 0 0 1 1.7 3.7v14.1a4.6 4.6 0 0 1-4.6 4.6H41.5v2.1h15.6a4.6 4.6 0 0 0 4.6-4.6V82.2a5.2 5.2 0 0 0-1.7-3.7 4.5 4.5 0 0 0 1.7-3.5z"/><path fill="#636466" d="M46.8 91.3h2.1V83h3.3v-2.1h-5.4v10.4zm33 0h2.1V65.2h3.3v-2.1h-5.4v28.2z"/><path d="M92.1 58.3a4.5 4.5 0 0 1 .5 2v34a4.6 4.6 0 0 1-4.6 4.6H77a4.5 4.5 0 0 1-2-.5 4.6 4.6 0 0 0 4.1 2.6h11a4.6 4.6 0 0 0 4.6-4.6v-34a4.6 4.6 0 0 0-2.6-4.1zm20.7 15.2h2.1v-8.3h3.3v-2.1h-5.4v10.4zm12.3 9a4.5 4.5 0 0 0 2.6-4.1V62.3a4.6 4.6 0 0 0-2.6-4.1 4.5 4.5 0 0 1 .5 2v16.2a4.5 4.5 0 0 1-2.6 4.1l3.1 18.4h-5.7l.4 2.1h7.4zm-9.5-1.6h-2.8v17.9h-5.3v2.1h7.4V83h1.1l-.4-2.1zm29.2 10.4h2.1V65.2h3.3v-2.1h-5.4v28.2z" fill="#636466"/><path d="M157.2 58.3a4.4 4.4 0 0 1 .5 2v34a4.6 4.6 0 0 1-4.6 4.6H142a4.5 4.5 0 0 1-2-.5 4.6 4.6 0 0 0 4.1 2.6h11.1a4.6 4.6 0 0 0 4.6-4.6v-34a4.6 4.6 0 0 0-2.6-4.1zm20.7 33h2V65.2h3.3v-2.1h-5.3v28.2z" fill="#636466"/><path d="M190.2 58.3a4.5 4.5 0 0 1 .5 2v34a4.6 4.6 0 0 1-4.6 4.6h-13.5v2.1h15.6a4.6 4.6 0 0 0 4.6-4.6v-34a4.6 4.6 0 0 0-2.6-4.1zm21-.5v41h-5.3v2.1h7.4V57.8h-2.1zm32.9 0v41h-5.9l.6 2.1h7.4V57.8h-2.1zm-12.8 22.1v18.9H226v2.1h7.4V87.2l-2.1-7.3zm32.3 3.1h6.1v-2.1h-8.2a4.5 4.5 0 0 1-2-.5 4.5 4.5 0 0 0 4.1 2.6zm2.8 2.7l-2.1.5v5.1h2.1v-5.6zm10.3-27.4a4.5 4.5 0 0 1 .5 2V69l-5.4 1.2v2.6l7.5-1.7v-8.8a4.6 4.6 0 0 0-2.6-4z" fill="#636466"/><path d="M276.7 76.1a4.5 4.5 0 0 1 .5 2v16.1a4.6 4.6 0 0 1-4.6 4.6h-11.1a4.5 4.5 0 0 1-2-.5 4.6 4.6 0 0 0 4.1 2.6h11.1a4.6 4.6 0 0 0 4.6-4.6V80.1a4.6 4.6 0 0 0-2.6-4zm-12.4-13v10.4h2.1v-8.3h3.3v-2.1h-5.4zM298 80.9h-.7v17.9H292v2.1h7.4V85.4l-1.4-4.5zm15.2-23.1h-2.8l-6.2 19.4 6.9 21.6h-6l.5 1.8.1.3h7.5l-6.9-21.6 6.9-21.5zm17.3 0v41h-5.3v2.1h7.4V57.8h-2.1zm31.105 25.167l5.727-5.728 2.086 2.086-5.727 5.728zm-351.931.072L15.4 77.31l2.086 2.086-5.727 5.728z" fill="#636466"/><path d="M55.6 69a4.5 4.5 0 0 1-1.6 3.5 5.2 5.2 0 0 1 1.7 3.7v14.1a4.6 4.6 0 0 1-4.6 4.6H35.5V51.7h15.6a4.6 4.6 0 0 1 4.6 4.6V69zm-7.5-9.9h-5.3v10.4h5.4V59.1zm0 17.8h-5.3v10.5h5.4V76.9zm36-25.2a4.6 4.6 0 0 1 4.6 4.6v34a4.6 4.6 0 0 1-4.6 4.6H73a4.6 4.6 0 0 1-4.6-4.6v-34a4.5 4.5 0 0 1 4.6-4.6h11.1zm-2.9 7.4h-5.3v28.3h5.4V59.1zm33.5 35.7l-3-17.9h-2.8v17.9h-7.4V51.7h15.6a4.5 4.5 0 0 1 4.5 4.6v16.1a4.5 4.5 0 0 1-2.6 4.1l3.1 18.4h-7.4zm-.5-35.7h-5.4v10.4h5.4V59.1zm34.9-7.4a4.6 4.6 0 0 1 4.6 4.6v34a4.6 4.6 0 0 1-4.6 4.6h-11a4.6 4.6 0 0 1-4.6-4.6v-34a4.5 4.5 0 0 1 4.6-4.6h11.1zm-2.9 7.4h-5.4v28.3h5.4V59.1zm36-7.4a4.6 4.6 0 0 1 4.6 4.6v34a4.6 4.6 0 0 1-4.6 4.6h-15.7V51.7h15.6zm-2.9 7.4h-5.4v28.3h5.4V59.1zm20.6-7.4h7.4v43.1h-7.4V51.7zm40.3 0v43.1h-7.4L227.4 76v18.8H220V51.7h7.3l5.4 17.7V51.7h7.5zm28.4 17.8a4.6 4.6 0 0 1 4.6 4.6v16.2a4.6 4.6 0 0 1-4.6 4.6h-11.1a4.6 4.6 0 0 1-4.6-4.6v-8.9l7.4-1.7v7.7h5.4V76.9h-8.2a4.5 4.5 0 0 1-4.6-4.6v-16a4.5 4.5 0 0 1 4.6-4.6h11.1a4.6 4.6 0 0 1 4.6 4.6V65l-7.5 1.7v-7.6h-5.4v10.4h8.3zm31.6 3.7l6.9 21.6h-7.5v-.2l-5.5-17.7h-.7v17.9H286V51.7h7.4v17.8h.6l5.7-17.8h7.5zm19-21.5h7.4v43.1h-7.4V51.7z" fill="#fff"/></svg>